<svg width="1200" height="500" viewBox="0 0 1200 500" fill="none" xmlns="http://www.w3.org/2000/svg">
  <rect width="1200" height="500" rx="32" fill="#F3F6FB"/>
  <rect x="40" y="40" width="1120" height="420" rx="24" fill="#FFFFFF" stroke="#E2E4E8" stroke-width="4"/>
  <rect x="120" y="120" width="240" height="160" rx="16" fill="#E8EDF7"/>
  <rect x="420" y="100" width="180" height="120" rx="16" fill="#F6EECF"/>
  <rect x="640" y="140" width="200" height="140" rx="16" fill="#E7F3ED"/>
  <rect x="880" y="110" width="200" height="160" rx="16" fill="#F0EAFB"/>
  <circle cx="210" cy="330" r="28" fill="#C9D7F2"/>
  <circle cx="340" cy="330" r="20" fill="#C9D7F2"/>
  <circle cx="470" cy="330" r="24" fill="#F5D89E"/>
  <circle cx="600" cy="330" r="20" fill="#F5D89E"/>
  <circle cx="730" cy="330" r="26" fill="#BFE4D0"/>
  <circle cx="860" cy="330" r="22" fill="#D9CCF8"/>
  <circle cx="990" cy="330" r="24" fill="#D9CCF8"/>
  <path d="M360 200H410" stroke="#94A3B8" stroke-width="6" stroke-linecap="round"/>
  <path d="M600 200H640" stroke="#94A3B8" stroke-width="6" stroke-linecap="round"/>
  <path d="M840 200H880" stroke="#94A3B8" stroke-width="6" stroke-linecap="round"/>
  <text x="600" y="430" text-anchor="middle" font-family="Arial, sans-serif" font-size="28" fill="#5C5C5C">
    Upload method image to assets/img/method/
  </text>
</svg>
