<svg width="1200" height="420" viewBox="0 0 1200 420" fill="none" xmlns="http://www.w3.org/2000/svg">
  <rect width="1200" height="420" rx="28" fill="#F3F6FB"/>
  <rect x="28" y="28" width="1144" height="364" rx="20" fill="#FFFFFF" stroke="#E2E4E8" stroke-width="3"/>

  <g transform="translate(70 98)" stroke="#3B4252" stroke-width="3" stroke-linecap="round" stroke-linejoin="round">
    <circle cx="62" cy="18" r="16" fill="#E8EDF7"/>
    <path d="M14 10L0 0"/>
    <path d="M110 10L124 0"/>
    <path d="M14 26L0 36"/>
    <path d="M110 26L124 36"/>
    <rect x="38" y="34" width="48" height="18" rx="6" fill="#DDE7F5"/>
    <path d="M62 34V18"/>
  </g>

  <g transform="translate(210 85)" stroke="#495057" stroke-width="3" fill="#F7F9FC">
    <rect x="0" y="20" width="120" height="86" rx="8"/>
    <rect x="16" y="0" width="120" height="86" rx="8"/>
    <rect x="32" y="40" width="120" height="86" rx="8"/>
  </g>

  <path d="M380 140H440" stroke="#94A3B8" stroke-width="6" stroke-linecap="round"/>
  <polygon points="440,140 426,132 426,148" fill="#94A3B8"/>

  <g transform="translate(470 70)">
    <rect x="0" y="0" width="200" height="200" rx="12" fill="#FFFFFF" stroke="#2F3E46" stroke-width="3"/>
    <rect x="24" y="24" width="152" height="152" rx="10" fill="#F0F4F8" stroke="#C8D2DC" stroke-width="2"/>
    <g transform="translate(45 45)" fill="#F4C95D" stroke="#57606F" stroke-width="2">
      <circle cx="20" cy="20" r="10"/>
      <circle cx="70" cy="10" r="10"/>
      <circle cx="110" cy="40" r="10"/>
      <circle cx="60" cy="60" r="10"/>
      <circle cx="30" cy="90" r="10"/>
      <path d="M20 20L70 10L110 40L60 60L30 90Z" fill="none"/>
      <path d="M20 20L60 60" fill="none"/>
      <path d="M70 10L60 60" fill="none"/>
    </g>
    <text x="100" y="190" text-anchor="middle" font-family="Arial, sans-serif" font-size="22" fill="#2F3E46">NeRF</text>
  </g>

  <path d="M690 140H750" stroke="#94A3B8" stroke-width="6" stroke-linecap="round"/>
  <polygon points="750,140 736,132 736,148" fill="#94A3B8"/>

  <g transform="translate(780 120)">
    <polygon points="0,60 220,0 320,40 100,100" fill="#B7D29F" stroke="#6C8A5F" stroke-width="3"/>
    <polygon points="0,60 100,100 100,140 0,100" fill="#9CBF86" stroke="#6C8A5F" stroke-width="3"/>
    <polygon points="100,100 320,40 320,80 100,140" fill="#88B074" stroke="#6C8A5F" stroke-width="3"/>
  </g>

  <text x="600" y="360" text-anchor="middle" font-family="Arial, sans-serif" font-size="26" fill="#5C5C5C">
    Upload method image to assets/img/method/
  </text>
</svg>
